<svg width="482" height="500" viewBox="0 0 482 500" fill="none" xmlns="http://www.w3.org/2000/svg">
<path fill-rule="evenodd" clip-rule="evenodd" d="M394.244 175.242C376.914 175.242 359.973 170.103 345.564 160.476C331.155 150.848 319.924 137.163 313.293 121.152C306.661 105.142 304.926 87.524 308.306 70.5272C311.687 53.5303 320.032 37.9177 332.286 25.6637C344.54 13.4096 360.153 5.06454 377.15 1.68366C394.147 -1.69723 411.764 0.0379652 427.775 6.6698C443.786 13.3016 457.47 24.5323 467.098 38.9415C476.726 53.3507 481.865 70.2914 481.865 87.6212C481.839 110.852 472.6 133.124 456.173 149.55C439.747 165.977 417.475 175.217 394.244 175.242ZM394.244 25.2563C381.906 25.2563 369.846 28.9149 359.588 35.7695C349.33 42.6242 341.335 52.3668 336.614 63.7655C331.893 75.1641 330.659 87.7067 333.066 99.807C335.474 111.907 341.416 123.022 350.141 131.745C358.866 140.468 369.981 146.408 382.082 148.813C394.183 151.219 406.725 149.982 418.123 145.259C429.521 140.536 439.262 132.539 446.114 122.279C452.967 112.02 456.623 99.9587 456.621 87.6212C456.602 71.0848 450.023 55.2314 438.329 43.5395C426.635 31.8476 410.78 25.2723 394.244 25.2563ZM303.974 59.843C299.397 74.7533 298.571 90.6139 301.637 106.001C305.286 124.315 314.283 141.136 327.491 154.338C340.699 167.539 357.525 176.527 375.841 180.166C381.72 181.334 387.667 181.934 393.603 181.974C394.003 187.492 394.203 193.189 394.203 199.068V385.467V494.812H274.469C274.469 492.013 274.487 488.463 274.507 484.563C274.554 475.482 274.61 464.5 274.469 456.676C258.399 481.57 230.527 500 152.109 500C45.2262 500 0.13501 440 0.13501 371.253C0.13501 270.265 81.2284 223.659 211.213 223.659H263.714C266.568 223.659 269.304 222.526 271.323 220.509C273.342 218.493 274.478 215.757 274.482 212.904V196.569C274.482 166.23 274.482 150.616 266.678 142.58C258.402 134.057 241.35 134.057 206.214 134.057C172.506 134.057 155.344 134.057 146.606 142.637C137.542 151.536 137.542 169.667 137.542 206.604H22.0999C22.0999 96.8682 71.7734 46.412 210.847 46.412C247.008 46.412 278.149 50.7831 303.974 59.843ZM274.583 308.943C274.583 303.568 274.583 300.879 273.238 299.534C271.893 298.188 269.201 298.188 263.815 298.188H263.815H224.568C176.905 298.188 155.346 298.188 145.595 308.918C137.542 317.78 137.542 333.96 137.542 363.502C137.542 394.824 137.542 409.554 144.894 416.481C151.421 422.63 163.742 422.63 187.001 422.63C274.583 422.63 274.583 422.631 274.583 309.827V308.943ZM363.324 130.403V131.618H425.564V115.627H386.281C387.784 111.642 392.086 106.623 402.995 98.9679C419.2 87.57 424.728 81.3486 424.728 68.4926C424.728 51.6753 416.982 41.7599 394.353 41.7599C374.196 41.7599 362.924 51.736 362.924 73.6082H381.408C381.408 56.791 381.408 56.6937 394.353 56.6937C399.775 56.6937 402.552 56.6937 403.974 58.0819C405.468 59.5392 405.468 62.5266 405.468 68.6506C405.468 76.3544 401.71 79.5137 389.274 88.615C370.221 102.528 363.324 115.032 363.324 130.403Z" fill="white"/>
</svg>
