<?xml version="1.0" standalone="no"?>
<!DOCTYPE svg PUBLIC "-//W3C//DTD SVG 20010904//EN"
 "http://www.w3.org/TR/2001/REC-SVG-20010904/DTD/svg10.dtd">
<svg version="1.0" xmlns="http://www.w3.org/2000/svg"
 width="500.000000pt" height="500.000000pt" viewBox="0 0 500.000000 500.000000"
 preserveAspectRatio="xMidYMid meet">
<metadata>
Created by potrace 1.14, written by Peter Selinger 2001-2017
</metadata>
<g transform="translate(0.000000,500.000000) scale(0.100000,-0.100000)"
fill="#000000" stroke="none">
<path d="M0 2500 l0 -2500 2500 0 2500 0 0 2500 0 2500 -2500 0 -2500 0 0
-2500z m3664 1645 c254 -66 436 -303 436 -565 -1 -253 -151 -465 -398 -558
-58 -22 -82 -26 -187 -26 -105 0 -129 4 -187 26 -244 92 -398 306 -398 551 0
98 15 165 55 252 72 157 211 275 376 319 72 20 230 20 303 1z m-999 -319 c50
-10 125 -27 168 -38 62 -17 77 -25 72 -37 -4 -9 -11 -53 -18 -98 -33 -252 103
-513 330 -631 80 -41 178 -72 231 -72 68 0 62 96 62 -1056 l0 -1044 -400 0
-400 0 0 120 0 120 -67 -68 c-148 -148 -352 -205 -733 -205 -340 -1 -568 66
-753 219 -249 205 -344 562 -246 923 75 278 298 491 628 601 225 76 422 100
807 100 290 0 335 5 354 40 14 26 13 357 -1 422 -14 65 -57 111 -120 129 -31
10 -123 13 -319 13 -441 1 -451 -7 -466 -339 l-7 -145 -385 0 -385 0 7 117
c34 564 289 843 849 927 154 24 163 24 442 21 190 -2 284 -7 350 -19z"/>
<path d="M3442 3989 c-130 -22 -239 -105 -299 -227 -37 -74 -38 -79 -38 -187
0 -104 2 -114 32 -176 41 -83 121 -159 210 -202 62 -29 76 -32 168 -32 92 0
105 3 170 33 164 77 252 222 243 401 -5 98 -33 174 -95 249 -88 107 -251 166
-391 141z m196 -129 c50 -23 81 -79 82 -147 0 -80 -38 -133 -157 -219 -34 -24
-71 -58 -83 -74 l-21 -30 130 0 131 0 0 -55 0 -55 -205 0 -205 0 0 38 c0 23
13 64 31 101 25 49 47 75 103 120 133 106 146 122 146 180 0 47 -2 52 -27 62
-33 13 -114 4 -125 -14 -4 -6 -8 -31 -8 -54 l0 -43 -60 0 -60 0 0 38 c0 57 38
123 85 149 54 30 179 32 243 3z"/>
<path d="M2070 2160 c-170 -13 -225 -41 -257 -133 -15 -45 -18 -87 -18 -297 0
-336 10 -365 133 -391 87 -18 520 -6 592 16 66 20 114 55 137 98 38 72 45 136
50 416 5 256 4 276 -13 288 -14 10 -76 13 -273 11 -141 0 -299 -4 -351 -8z"/>
</g>
</svg>
